<svg xmlns="http://www.w3.org/2000/svg" viewBox="0 0 1174.21 1083.4"><defs><style>.cls-1{fill:#212e5c;}.cls-2{fill:#1d306d;}.cls-3{fill:#fff;}</style></defs><g id="Ñëîé_1" data-name="Ñëîé 1"><path class="cls-1" d="M766.55,614.07V832.21a69.65,69.65,0,0,0,11.3,38.13H365.22a76.52,76.52,0,0,1-76.52-76.52V750.4c0-106.65,70.68-196.81,167.75-226.18a272.6,272.6,0,0,0,318.16,0,234.53,234.53,0,0,1,39.55,16v7.41A70.24,70.24,0,0,0,766.55,614.07Z" transform="translate(-130.32 -90.87)"/><path class="cls-1" d="M615.54,514.14c116.88,0,211.62-94.75,211.62-211.63S732.42,90.87,615.54,90.87,403.92,185.64,403.92,302.51,498.66,514.14,615.54,514.14Z" transform="translate(-130.32 -90.87)"/><path class="cls-2" d="M989.36,729.14,992,767.8c.34,5.14-3.43,9.51-8.21,9.51H961c-4.77,0-8.55-4.37-8.2-9.51l2.58-38.66a32.49,32.49,0,1,1,34,0Z" transform="translate(-130.32 -90.87)"/><path class="cls-1" d="M1108,575.94h-9.47V529.82a126.2,126.2,0,0,0-252.39,0v46.12h-9.48a38.13,38.13,0,0,0-38.13,38.13V832.21a38.13,38.13,0,0,0,38.13,38.13H1108a38.13,38.13,0,0,0,38.13-38.13V614.07A38.13,38.13,0,0,0,1108,575.94ZM989.36,729.14,992,767.8c.34,5.14-3.43,9.51-8.21,9.51H961c-4.77,0-8.55-4.37-8.2-9.51l2.58-38.66a32.49,32.49,0,1,1,34,0Zm63-153.2h-160V529.82a80,80,0,1,1,160,0Z" transform="translate(-130.32 -90.87)"/><path class="cls-3" d="M989.36,729.14,992,767.8c.34,5.14-3.43,9.51-8.21,9.51H961c-4.77,0-8.55-4.37-8.2-9.51l2.58-38.66a32.49,32.49,0,1,1,34,0Z" transform="translate(-130.32 -90.87)"/><rect class="cls-1" y="873.03" width="1174.21" height="210.36" rx="70"/><polygon class="cls-3" points="327.07 946.29 287.43 959.25 287.43 917.53 257.7 917.53 257.7 959.25 218.05 946.29 208.79 974.72 248.42 987.57 223.9 1021.35 248.11 1038.9 272.56 1005.21 297.01 1038.9 321.22 1021.35 296.7 987.57 336.33 974.72 327.07 946.29"/><polygon class="cls-3" points="536.77 946.29 497.12 959.25 497.12 917.53 467.39 917.53 467.39 959.25 427.75 946.29 418.48 974.72 458.12 987.57 433.6 1021.35 457.8 1038.9 482.26 1005.21 506.71 1038.9 530.92 1021.35 506.4 987.57 546.03 974.72 536.77 946.29"/><polygon class="cls-3" points="746.46 946.29 706.82 959.25 706.82 917.53 677.09 917.53 677.09 959.25 637.44 946.29 628.18 974.72 667.81 987.57 643.29 1021.35 667.5 1038.9 691.95 1005.21 716.4 1038.9 740.62 1021.35 716.09 987.57 755.73 974.72 746.46 946.29"/><polygon class="cls-3" points="965.42 974.72 956.16 946.29 916.51 959.25 916.51 917.53 886.78 917.53 886.78 959.25 847.13 946.29 837.88 974.72 877.5 987.57 852.99 1021.35 877.19 1038.9 901.65 1005.21 926.1 1038.9 950.31 1021.35 925.79 987.57 965.42 974.72"/></g></svg>