<svg id="Capa_1" data-name="Capa 1" xmlns="http://www.w3.org/2000/svg" viewBox="0 0 238.67 139.48"><defs><style>.cls-1{fill:#212f5c;}</style></defs><path class="cls-1" d="M0,17C1.25,12.4,3.13,8.16,6.9,4.93,11.29,1.18,16.42,0,22,0Q87.52,0,153,0q22.14,0,44.28,0c7.09,0,13.06,2.31,17.48,8,3.08,4,4.11,8.61,4.1,13.54,0,6.21,0,12.43,0,18.64a4.42,4.42,0,0,0,1.51,3.65c13,12,19.44,26.88,18.14,44.49-1.48,20-11.35,35.18-29,44.57-22.15,11.77-47.65,7.37-65.11-10.65a53.42,53.42,0,0,1-14.76-31.44c0-.3-.09-.59-.17-1.14H21.34C12.7,89.69,6,86.2,2,78.35A46.83,46.83,0,0,1,0,73Zm159.54,18.7a54.83,54.83,0,0,1,24.6-5.81,55.48,55.48,0,0,1,24.53,5.92,7.35,7.35,0,0,0,.16-.88q0-6.75,0-13.51c0-7.36-4-11.41-11.38-11.41H21.31C14,10,10.06,13.94,10,21.25c0,15.69.12,31.38-.06,47.06C9.89,76,15.36,79.67,21.4,79.64c35.18-.18,70.36-.09,105.55-.09h2.53A55.23,55.23,0,0,1,140,52.11c.27-.37.72-.82.67-1.18-.38-2.75.85-4.69,3.18-6.07-3.2-2.54-4-4.9-2.72-7.31s3.55-3,7.88-1.78c.46-3.78,1.82-5.49,4.57-5.74C156.62,29.76,157.93,31,159.54,35.73Zm69.07,48.9a44.64,44.64,0,1,0-44.7,44.74A44.82,44.82,0,0,0,228.61,84.63Z"/><path class="cls-1" d="M40.22,35.74c3.79-1.28,6.11-.75,7.5,1.66s.72,4.8-2.13,7.07a34.51,34.51,0,0,1,2.72,5.15c.27.83-.31,2.14-.84,3-1.4,2.28-3.69,2.64-7.44,1.24-.4,3.41-1.81,6.06-5.72,5.83-2.77-.16-4.08-2-4.65-5.74-4.32,1.19-6.41.75-7.73-1.62-1.42-2.53-.72-4.67,2.47-7.56-3.07-2.51-3.89-4.89-2.54-7.3,1.43-2.56,3.8-3.07,7.73-1.65.8-4.15,2-5.61,4.76-5.82C37.31,29.79,38.52,31,40.22,35.74Z"/><path class="cls-1" d="M103.9,44.81c-3.17-2.72-3.88-4.77-2.52-7.29s3.68-3,7.09-2a33.5,33.5,0,0,1,3.59-4.9c.66-.64,2.19-.63,3.28-.51,2.48.26,3.72,2.07,4.08,5.2a27.44,27.44,0,0,1,5.53.11,4.64,4.64,0,0,1,2.43,2.29c1.34,2.36.41,4.63-2.63,7,3.21,2.89,3.91,5,2.51,7.53s-3.61,2.93-7.72,1.61c-.66,3.87-2.07,5.59-4.83,5.87S110.52,58.47,109,54c-3.83,1.24-6.17.73-7.53-1.65S100.62,48,103.9,44.81Z"/><path class="cls-1" d="M79.89,35.72c4-1.23,6.38-.68,7.69,1.8S88.1,42.33,85,44.8c3.22,2.94,3.93,5.26,2.37,7.74-1.45,2.31-3.77,2.74-7.42,1.38-1.23,4.25-2.8,5.95-5.43,5.89S70.31,58,69.28,54c-3.94,1.21-6.2.74-7.56-1.56-1.46-2.49-.71-4.83,2.17-7.34a23.66,23.66,0,0,1-2.7-4.35,4.83,4.83,0,0,1,.52-3.32c1.22-2.48,3.74-3,7.52-1.65,1.26-4.37,2.63-5.83,5.44-5.79S78.84,31.56,79.89,35.72Z"/><path class="cls-1" d="M174,97.47l14.7-14.71c5.38-5.39,10.73-10.8,16.16-16.13,2.44-2.4,5.36-2.5,7.46-.48s2.1,5-.27,7.45q-17,17.12-34.09,34.11c-2.49,2.46-5.33,2.4-7.82,0q-7.16-7-14.17-14.17c-2.29-2.34-2.35-5.47-.31-7.46s5-2,7.29.31C166.6,89.92,170.15,93.61,174,97.47Z"/></svg>