<svg id="Layer_1" data-name="Layer 1" xmlns="http://www.w3.org/2000/svg" viewBox="0 0 512 512"><defs><style>.cls-1{fill:#7283de;}</style></defs><title>dni</title><path class="cls-1" d="M405.33,85.33H320V64a64,64,0,1,0-128,0V85.33H106.67A106.79,106.79,0,0,0,0,192V405.33A106.79,106.79,0,0,0,106.67,512H405.33A106.79,106.79,0,0,0,512,405.33V192A106.79,106.79,0,0,0,405.33,85.33ZM213.33,384A21.33,21.33,0,0,1,192,405.33H85.33A21.33,21.33,0,0,1,64,384V213.33A21.33,21.33,0,0,1,85.33,192H192a21.33,21.33,0,0,1,21.33,21.33V384ZM256,128a21.33,21.33,0,0,1-21.33-21.33V64a21.33,21.33,0,1,1,42.67,0v42.67A21.33,21.33,0,0,1,256,128ZM384,405.33H298.67a21.33,21.33,0,0,1,0-42.67H384A21.33,21.33,0,0,1,384,405.33ZM426.67,320h-128a21.33,21.33,0,1,1,0-42.67h128A21.33,21.33,0,1,1,426.67,320Zm0-85.33h-128a21.33,21.33,0,1,1,0-42.67h128A21.33,21.33,0,1,1,426.67,234.67Zm-320,0h64v128h-64v-128Z" transform="translate(0 0)"/></svg>