<svg id="Layer_1" data-name="Layer 1" xmlns="http://www.w3.org/2000/svg" viewBox="0 0 511.99 456.83"><defs><style>.cls-1{fill:#7283de;}</style></defs><title>eyehide</title><path class="cls-1" d="M508.18,238.53h0a335.7,335.7,0,0,0-88.43-116.05l64.68-64.68L454.25,27.58,384,97.77A251.37,251.37,0,0,0,256,64C96,64,22.55,197.57,3.82,238.53a42,42,0,0,0,0,35A335.7,335.7,0,0,0,92.25,389.57L27.58,454.25l30.17,30.17L128,414.23A251.37,251.37,0,0,0,256,448c160,0,233.45-133.57,252.18-174.53A42,42,0,0,0,508.18,238.53ZM128,256A127.79,127.79,0,0,1,330,151.79l-31,31A84.2,84.2,0,0,0,256,170.67,85.33,85.33,0,0,0,170.67,256a84.2,84.2,0,0,0,12.1,43.07l-31,31A127.17,127.17,0,0,1,128,256ZM256,384a127.17,127.17,0,0,1-74-23.79l31-31A84.2,84.2,0,0,0,256,341.33,85.33,85.33,0,0,0,341.33,256a84.2,84.2,0,0,0-12.1-43.07l31-31A127.79,127.79,0,0,1,256,384Z" transform="translate(0 -27.58)"/></svg>