<svg id="Layer_1" data-name="Layer 1" xmlns="http://www.w3.org/2000/svg" viewBox="0 0 510.85 512"><defs><style>.cls-1{fill:#7283de;}</style></defs><title>gender</title><path class="cls-1" d="M512,42.67V128H469.33V72.83L418.13,124a149.93,149.93,0,1,1-30.21-30.17l51.2-51.2H384V0h85.33A42.67,42.67,0,0,1,512,42.67ZM170.67,355.9C91.84,285.67,84.87,164.83,155.1,86a191.17,191.17,0,0,1,20.13-19.5,149.63,149.63,0,0,0-25.9-2.5A149.33,149.33,0,0,0,128,361v44.37H64V448h64v64h42.67V448h64V405.33h-64V355.9Z" transform="translate(-1.15 0)"/></svg>