<svg id="Layer_1" data-name="Layer 1" xmlns="http://www.w3.org/2000/svg" viewBox="0 0 512.08 512.16"><defs><style>.cls-1{fill:#7283de;}</style></defs><title>tel</title><path class="cls-1" d="M512,133.12C512,296.11,295.89,512,133.12,512c-35.63,0-68.91-13.44-93.44-38L18.35,449.49C-6.4,424.75-6.4,382.93,19.41,357.12,20.05,356.48,71.47,317,71.47,317a66.25,66.25,0,0,1,91.31,0l31.15,25c68.27-29,116.69-77.65,147.84-148.27L317,162.56a65.84,65.84,0,0,1,0-91.31s39.47-51.41,40.11-52.05a66.05,66.05,0,0,1,93.44,0L473,38.61c25.6,25.39,39,58.67,39,94.29v0.21Z" transform="translate(0.08 0.16)"/></svg>